<svg width="19" height="12" viewBox="0 0 19 12" fill="none" xmlns="http://www.w3.org/2000/svg">
<path d="M0.495252 0.632878C0.377419 0.747547 0.283366 0.884335 0.21848 1.03541C0.153594 1.18648 0.11915 1.34887 0.11712 1.51328C0.11509 1.67768 0.145515 1.84088 0.206652 1.9935C0.267788 2.14613 0.358436 2.2852 0.473401 2.40274L8.68018 10.8147C8.77155 10.9085 8.88052 10.9834 9.00086 11.0351C9.12121 11.0868 9.25056 11.1142 9.38152 11.1158C9.51248 11.1174 9.64247 11.0932 9.76405 11.0445C9.88564 10.9958 9.99642 10.9237 10.0901 10.8321L18.502 2.62532C18.998 2.14141 19.0078 1.35147 18.5239 0.855454C18.04 0.359443 17.25 0.34969 16.754 0.833604L9.41519 7.98355L2.25524 0.644608C1.7812 0.158719 0.981264 0.148841 0.495252 0.632878Z" fill="#000000"/>
</svg>
