<?xml version="1.0" encoding="utf-8"?>
<!-- Generator: Adobe Illustrator 16.0.0, SVG Export Plug-In . SVG Version: 6.00 Build 0)  -->
<!DOCTYPE svg PUBLIC "-//W3C//DTD SVG 1.1//EN" "http://www.w3.org/Graphics/SVG/1.1/DTD/svg11.dtd">
<svg version="1.1" id="Layer_1" xmlns="http://www.w3.org/2000/svg" xmlns:xlink="http://www.w3.org/1999/xlink" x="0px" y="0px"
	 width="50px" height="50px" viewBox="0 0 50 50" enable-background="new 0 0 50 50" xml:space="preserve">
<g>
	<path fill="#FFFFFF" d="M14,4C8.489,4,4,8.489,4,14v22c0,5.512,4.489,10,10,10h22c5.512,0,10-4.488,10-10V14
		c0-5.511-4.488-10-10-10H14z M14,6h22c4.431,0,8,3.569,8,8v22c0,4.431-3.569,8-8,8H14c-4.431,0-8-3.569-8-8V14
		C6,9.569,9.569,6,14,6z M18.049,11.045c-2.045-0.088-3.598,0.688-4.574,1.623c-0.488,0.467-0.841,0.967-1.082,1.434
		s-0.395,0.852-0.395,1.352c0-0.045-0.011,0.189-0.018,0.461s-0.005,0.638,0.02,1.08c0.05,0.885,0.2,2.081,0.598,3.5
		c0.795,2.837,2.587,6.56,6.473,10.445s7.607,5.677,10.445,6.473c1.419,0.398,2.615,0.548,3.5,0.598
		c0.442,0.025,0.807,0.026,1.078,0.02s0.508-0.018,0.463-0.018c0.5,0,0.885-0.153,1.352-0.395s0.967-0.594,1.434-1.082
		c0.934-0.977,1.711-2.529,1.623-4.574c-0.042-0.976-0.584-1.84-1.383-2.352c-0.617-0.396-1.576-1.01-2.828-1.811
		c-1.452-0.928-3.31-0.994-4.824-0.164l0.086-0.043l-1.178,0.506l-0.086,0.061c-0.286,0.201-0.641,0.238-0.963,0.104
		c-0.902-0.377-2.308-1.119-3.615-2.426c-1.307-1.307-2.048-2.713-2.426-3.615c-0.135-0.322-0.098-0.677,0.104-0.963l0.061-0.086
		l0.506-1.178l-0.043,0.086c0.83-1.515,0.765-3.372-0.164-4.824c-0.8-1.251-1.415-2.21-1.811-2.828
		C19.888,11.628,19.024,11.087,18.049,11.045z M17.963,13.043c0.28,0.012,0.57,0.176,0.754,0.463
		c0.396,0.618,1.011,1.578,1.811,2.828c0.531,0.83,0.568,1.92,0.094,2.785l-0.023,0.043l-0.482,1.127l0.1-0.182
		c-0.591,0.842-0.71,1.935-0.313,2.885c0.451,1.078,1.313,2.713,2.857,4.258s3.18,2.406,4.258,2.857
		c0.949,0.397,2.043,0.278,2.885-0.313l-0.182,0.1l1.127-0.482l0.043-0.023c0.865-0.475,1.955-0.435,2.785,0.096v-0.002
		c1.25,0.8,2.21,1.414,2.828,1.811c0.287,0.184,0.451,0.474,0.463,0.754c0.065,1.519-0.462,2.47-1.07,3.105
		c-0.305,0.318-0.635,0.549-0.906,0.689s-0.532,0.17-0.434,0.17c-0.184,0-0.28,0.012-0.51,0.018s-0.537,0.006-0.918-0.016
		c-0.761-0.043-1.811-0.173-3.074-0.527c-2.528-0.709-5.917-2.308-9.57-5.961s-5.252-7.042-5.961-9.57
		c-0.354-1.264-0.484-2.314-0.527-3.074c-0.021-0.38-0.021-0.688-0.016-0.918c0.006-0.229,0.018-0.326,0.018-0.51
		c0,0.099,0.029-0.161,0.17-0.434s0.372-0.602,0.689-0.906C15.493,13.505,16.444,12.978,17.963,13.043z"/>
</g>
</svg>
