<svg width="14" height="18" viewBox="0 0 14 18" fill="none" xmlns="http://www.w3.org/2000/svg">
<path d="M2.43948 0.406917L3.45394 0.101797C4.00967 -0.0657817 4.60738 -0.0254411 5.13555 0.215291C5.66372 0.456022 6.08627 0.880699 6.32433 1.41008L7.10843 3.15387C7.31312 3.6092 7.37012 4.1172 7.27143 4.60657C7.17275 5.09595 6.92333 5.54215 6.55817 5.88257L5.25945 7.09349C5.22149 7.12886 5.19744 7.17666 5.19165 7.22823C5.1534 7.57334 5.38724 8.2453 5.9262 9.17978C6.31825 9.8587 6.67379 10.3359 6.97543 10.6028C7.1858 10.7897 7.30141 10.8297 7.35096 10.8158L9.09823 10.2812C9.5754 10.1352 10.0863 10.1422 10.5592 10.3012C11.0322 10.4603 11.4436 10.7633 11.7357 11.1678L12.8492 12.7117C13.1878 13.1812 13.3446 13.7576 13.2904 14.3339C13.2362 14.9103 12.9747 15.4474 12.5545 15.8455L11.7843 16.5757C11.3756 16.9628 10.8735 17.2374 10.3271 17.3729C9.78063 17.5083 9.20843 17.4999 8.6662 17.3485C6.27217 16.68 4.1259 14.6598 2.20303 11.3295C0.277558 7.99494 -0.39788 5.12281 0.224531 2.71227C0.36464 2.17013 0.642039 1.67321 1.02999 1.26942C1.41794 0.865636 1.90337 0.56859 2.43948 0.406917ZM2.81588 1.65609C2.49431 1.75297 2.2031 1.93103 1.97031 2.17311C1.73751 2.41519 1.57098 2.71314 1.48674 3.03825C0.963427 5.06544 1.56237 7.61158 3.33224 10.6776C5.0995 13.7392 7.00238 15.5299 9.01739 16.0932C9.34262 16.1838 9.68576 16.1887 10.0134 16.1073C10.3411 16.026 10.6421 15.8612 10.8872 15.629L11.6583 14.8988C11.8494 14.7178 11.9683 14.4736 11.9929 14.2116C12.0175 13.9496 11.9462 13.6875 11.7922 13.4741L10.6795 11.9311C10.5467 11.747 10.3596 11.6091 10.1444 11.5367C9.92929 11.4644 9.69688 11.4612 9.47985 11.5277L7.72823 12.0641C6.71117 12.3666 5.78798 11.5486 4.79699 9.83175C4.12938 8.67559 3.81817 7.78023 3.89554 7.08393C3.9364 6.7223 4.10417 6.38849 4.37017 6.13988L5.66889 4.92896C5.83494 4.77424 5.94838 4.5714 5.99328 4.34893C6.03818 4.12645 6.01229 3.8955 5.91924 3.68848L5.13514 1.94469C5.02694 1.70425 4.83499 1.51136 4.59509 1.40196C4.35519 1.29257 4.0837 1.27413 3.83121 1.3501L2.81588 1.65609Z" fill="white"/>
</svg>
