<svg width="40" height="40" viewBox="0 0 40 40" fill="none" xmlns="http://www.w3.org/2000/svg">
<path d="M33 37L33 12.9375" stroke="white" stroke-width="2" stroke-linecap="round" stroke-linejoin="round"/>
<path d="M33 8.5625L33 2" stroke="white" stroke-width="2" stroke-linecap="round" stroke-linejoin="round"/>
<path d="M39 10.75C39 9.85825 38.594 9.0349 37.9263 8.45063C37.2628 7.87008 36.3883 7.5625 35.5 7.5625L30.5 7.5625C29.6117 7.5625 28.7372 7.87008 28.0737 8.45063C27.406 9.0349 27 9.85825 27 10.75C27 11.6417 27.406 12.4651 28.0737 13.0494C28.7372 13.6299 29.6117 13.9375 30.5 13.9375L35.5 13.9375C36.3883 13.9375 37.2628 13.6299 37.9263 13.0494C38.594 12.4651 39 11.6417 39 10.75Z" stroke="white" stroke-width="2" stroke-linecap="round" stroke-linejoin="round"/>
<path d="M7.99999 37L7.99999 12.9375" stroke="white" stroke-width="2" stroke-linecap="round" stroke-linejoin="round"/>
<path d="M7.99998 8.5625L7.99998 2" stroke="white" stroke-width="2" stroke-linecap="round" stroke-linejoin="round"/>
<path d="M12.9263 13.0494C13.594 12.4651 14 11.6417 14 10.75C14 9.85825 13.594 9.0349 12.9263 8.45063C12.2628 7.87008 11.3883 7.5625 10.5 7.5625L5.5 7.5625C4.61167 7.5625 3.73721 7.87008 3.07373 8.45063C2.40598 9.03491 2 9.85826 2 10.75C2 11.6417 2.40598 12.4651 3.07373 13.0494C3.73721 13.6299 4.61167 13.9375 5.5 13.9375L10.5 13.9375C11.3883 13.9375 12.2628 13.6299 12.9263 13.0494Z" stroke="white" stroke-width="2" stroke-linecap="round" stroke-linejoin="round"/>
<path d="M20.5 26.0625L20.5 2" stroke="white" stroke-width="2" stroke-linecap="round" stroke-linejoin="round"/>
<path d="M20.5 37L20.5 30.4375" stroke="white" stroke-width="2" stroke-linecap="round" stroke-linejoin="round"/>
<path d="M26.5 28.25C26.5 27.3583 26.094 26.5349 25.4263 25.9506C24.7628 25.3701 23.8883 25.0625 23 25.0625L18 25.0625C17.1117 25.0625 16.2372 25.3701 15.5737 25.9506C14.906 26.5349 14.5 27.3583 14.5 28.25C14.5 29.1417 14.906 29.9651 15.5737 30.5494C16.2372 31.1299 17.1117 31.4375 18 31.4375L23 31.4375C23.8883 31.4375 24.7628 31.1299 25.4263 30.5494C26.094 29.9651 26.5 29.1417 26.5 28.25Z" stroke="white" stroke-width="2" stroke-linecap="round" stroke-linejoin="round"/>
</svg>
